<svg width="17" height="18" viewBox="0 0 17 18" fill="none" xmlns="http://www.w3.org/2000/svg">
<path d="M2.39334 17.0485H7.7225V11.2406H5.80783V9.32597H7.7225V6.93263C7.7225 5.61293 8.79613 4.5393 10.1158 4.5393H12.5092V6.45397H10.5945C10.0666 6.45397 9.63717 6.8834 9.63717 7.4113V9.32597H12.4228L12.1037 11.2406H9.63717V17.0485H13.9452C15.2649 17.0485 16.3385 15.9748 16.3385 14.6551V3.1033C16.3385 1.7836 15.2649 0.709961 13.9452 0.709961H2.39334C1.07364 0.709961 0 1.7836 0 3.1033V14.6551C0 15.9748 1.07364 17.0485 2.39334 17.0485ZM0.957334 3.1033C0.957334 2.3115 1.60154 1.6673 2.39334 1.6673H13.9452C14.737 1.6673 15.3812 2.3115 15.3812 3.1033V14.6551C15.3812 15.4469 14.737 16.0911 13.9452 16.0911H10.5945V12.198H12.9147L13.5529 8.36864H10.5945V7.4113H13.4665V3.58196H10.1158C8.26823 3.58196 6.76516 5.08503 6.76516 6.93263V8.36864H4.85049V12.198H6.76516V16.0911H2.39334C1.60154 16.0911 0.957334 15.4469 0.957334 14.6551V3.1033Z" fill="white"/>
</svg>
