<svg width="29" height="20" viewBox="0 0 29 20" fill="none" xmlns="http://www.w3.org/2000/svg">
<path d="M27.6704 8.83496H1.16478C0.521511 8.83496 0 9.35642 0 9.99974C0 10.6431 0.521511 11.1645 1.16478 11.1645H27.6704C28.3137 11.1645 28.8352 10.6431 28.8352 9.99974C28.8352 9.35647 28.3137 8.83496 27.6704 8.83496Z" fill="white"/>
<path d="M27.6704 0H1.16478C0.521511 0 0 0.521511 0 1.16478C0 1.80805 0.521511 2.32957 1.16478 2.32957H27.6704C28.3137 2.32957 28.8352 1.80805 28.8352 1.16478C28.8352 0.521511 28.3137 0 27.6704 0Z" fill="white"/>
<path d="M27.6704 17.6709H1.16478C0.521511 17.6709 0 18.1924 0 18.8357C0 19.479 0.521511 20.0005 1.16478 20.0005H27.6704C28.3137 20.0005 28.8352 19.479 28.8352 18.8357C28.8352 18.1924 28.3137 17.6709 27.6704 17.6709Z" fill="white"/>
</svg>
