<svg width="17" height="18" viewBox="0 0 17 18" fill="none" xmlns="http://www.w3.org/2000/svg">
<path d="M2.88723 17.0485H14.4391C15.7588 17.0485 16.8324 15.9748 16.8324 14.6551V3.1033C16.8324 1.7836 15.7588 0.709961 14.4391 0.709961H2.88723C1.56753 0.709961 0.493896 1.7836 0.493896 3.1033V14.6551C0.493896 15.9748 1.56753 17.0485 2.88723 17.0485ZM1.45123 3.1033C1.45123 2.3115 2.09544 1.6673 2.88723 1.6673H14.4391C15.2309 1.6673 15.8751 2.3115 15.8751 3.1033V14.6551C15.8751 15.4469 15.2309 16.0911 14.4391 16.0911H2.88723C2.09544 16.0911 1.45123 15.4469 1.45123 14.6551V3.1033Z" fill="white"/>
<path d="M8.66311 13.1873C11.0385 13.1873 12.9711 11.2547 12.9711 8.87929C12.9711 6.50391 11.0385 4.57129 8.66311 4.57129C6.28772 4.57129 4.3551 6.50391 4.3551 8.87929C4.3551 11.2547 6.28772 13.1873 8.66311 13.1873ZM8.66311 5.52862C10.5107 5.52862 12.0138 7.03169 12.0138 8.87929C12.0138 10.7269 10.5107 12.23 8.66311 12.23C6.8155 12.23 5.31244 10.7269 5.31244 8.87929C5.31244 7.03169 6.8155 5.52862 8.66311 5.52862Z" fill="white"/>
<path d="M13.45 5.52825C14.2418 5.52825 14.886 4.88405 14.886 4.09225C14.886 3.30046 14.2418 2.65625 13.45 2.65625C12.6582 2.65625 12.014 3.30046 12.014 4.09225C12.014 4.88405 12.6582 5.52825 13.45 5.52825ZM13.45 3.61358C13.7139 3.61358 13.9287 3.82836 13.9287 4.09225C13.9287 4.35614 13.7139 4.57092 13.45 4.57092C13.1861 4.57092 12.9714 4.35614 12.9714 4.09225C12.9714 3.82836 13.1861 3.61358 13.45 3.61358Z" fill="white"/>
</svg>
