<svg width="24" height="25" viewBox="0 0 24 25" fill="none" xmlns="http://www.w3.org/2000/svg">
<path d="M12.3049 24.2779C18.7639 24.2779 24 19.0419 24 12.5828C24 6.12378 18.7639 0.887695 12.3049 0.887695C5.84583 0.887695 0.609741 6.12378 0.609741 12.5828C0.609741 19.0419 5.84583 24.2779 12.3049 24.2779Z" fill="#29B6F6"/>
<path d="M18.4574 7.32011L16.2669 18.5042C16.2669 18.5042 16.1727 19.0152 15.5388 19.0152C15.202 19.0152 15.0284 18.855 15.0284 18.855L10.2836 14.9178L7.96216 13.7477L4.98283 12.9554C4.98283 12.9554 4.45245 12.8022 4.45245 12.3636C4.45245 11.9982 4.99803 11.8239 4.99803 11.8239L17.4627 6.87219C17.4621 6.8716 17.8434 6.73477 18.1211 6.73535C18.2919 6.73535 18.4866 6.80845 18.4866 7.02773C18.4866 7.17392 18.4574 7.32011 18.4574 7.32011Z" fill="white"/>
<path d="M12.0541 16.3871L10.0507 18.36C10.0507 18.36 9.96361 18.4273 9.84724 18.4302C9.80689 18.4314 9.76362 18.4249 9.71918 18.4051L10.2829 14.917L12.0541 16.3871Z" fill="#B0BEC5"/>
<path d="M16.0874 9.18877C15.9885 9.06012 15.8061 9.03673 15.6774 9.13439L7.961 13.7522C7.961 13.7522 9.19249 17.1976 9.3802 17.794C9.56849 18.3911 9.71936 18.4051 9.71936 18.4051L10.2831 14.917L16.0324 9.5981C16.161 9.50044 16.185 9.31741 16.0874 9.18877Z" fill="#CFD8DC"/>
</svg>
