<svg width="23" height="18" viewBox="0 0 23 18" fill="none" xmlns="http://www.w3.org/2000/svg">
<path d="M18.544 0.709961H5.17617C2.71946 0.709961 0.720215 2.70917 0.720215 5.16592V12.5925C0.720215 15.0492 2.71946 17.0485 5.17617 17.0485H18.544C21.0008 17.0485 23 15.0492 23 12.5925V5.16592C23 2.70917 21.0008 0.709961 18.544 0.709961ZM22.0098 12.5925C22.0098 14.5036 20.4552 16.0582 18.544 16.0582H5.17617C3.26506 16.0582 1.71043 14.5036 1.71043 12.5925V5.16592C1.71043 3.25481 3.26506 1.70017 5.17617 1.70017H18.544C20.4552 1.70017 22.0098 3.25481 22.0098 5.16592V12.5925ZM8.64192 13.0682L15.8977 8.87969L8.64192 4.6901V13.0682ZM9.63213 6.40518L13.9173 8.87972L9.63213 11.3533V6.40518Z" fill="white"/>
</svg>
