<svg width="28" height="21" viewBox="0 0 28 21" fill="none" xmlns="http://www.w3.org/2000/svg">
<path d="M26.7088 17.198C26.4425 18.6025 25.3069 19.6728 23.9025 19.8712C21.6966 20.2054 18.021 20.6074 13.8781 20.6074C9.80043 20.6074 6.12482 20.2054 3.85367 19.8712C2.44921 19.6728 1.31364 18.6025 1.04736 17.198C0.77848 15.6631 0.512207 13.3893 0.512207 10.583C0.512207 7.77668 0.77848 5.50292 1.04736 3.96793C1.31364 2.56347 2.44921 1.49316 3.85367 1.29476C6.05956 0.960614 9.73517 0.558594 13.8781 0.558594C18.021 0.558594 21.6313 0.960614 23.9025 1.29476C25.3069 1.49316 26.4425 2.56347 26.7088 3.96793C26.9776 5.50292 27.3118 7.77668 27.3118 10.583C27.2439 13.3893 26.9776 15.6631 26.7088 17.198Z" fill="#FF3D00"/>
<path d="M9.86829 15.2614V5.90527L17.8878 10.5833L9.86829 15.2614Z" fill="white"/>
</svg>
