<svg width="35" height="35" viewBox="0 0 35 35" fill="none" xmlns="http://www.w3.org/2000/svg">
<path d="M35 27.8118C35 31.7809 31.7809 35 27.8118 35H7.18821C3.21709 35 0 31.7809 0 27.8118V7.1902C0 3.21908 3.21908 0 7.18821 0H27.8098C31.7789 0 34.998 3.22107 34.998 7.1902V27.8118H35Z" fill="url(#paint0_radial)"/>
<path d="M22.5657 4.30127H12.435C7.94262 4.30127 4.30176 7.94213 4.30176 12.4345V22.5653C4.30176 27.0556 7.94262 30.6965 12.435 30.6965H22.5657C27.0581 30.6965 30.699 27.0556 30.699 22.5653V12.4345C30.699 7.94213 27.0581 4.30127 22.5657 4.30127ZM28.1643 21.5924C28.1643 25.2233 25.2218 28.1638 21.5929 28.1638H13.4059C9.77499 28.1638 6.83445 25.2233 6.83445 21.5924V13.4054C6.83445 9.77648 9.77698 6.83395 13.4059 6.83395H21.5929C25.2218 6.83395 28.1643 9.77847 28.1643 13.4054V21.5924Z" fill="white"/>
<path d="M17.8538 10.5923C14.012 10.5923 10.9004 13.7039 10.9004 17.5437C10.9004 21.3816 14.014 24.4972 17.8538 24.4972C21.6937 24.4972 24.8073 21.3836 24.8073 17.5437C24.8053 13.7039 21.6937 10.5923 17.8538 10.5923ZM17.8538 21.7277C15.542 21.7277 13.6698 19.8536 13.6698 17.5457C13.6698 15.2339 15.542 13.3617 17.8538 13.3617C20.1637 13.3617 22.0359 15.2339 22.0359 17.5457C22.0359 19.8536 20.1637 21.7277 17.8538 21.7277Z" fill="white"/>
<path d="M26.093 10.4848C26.093 11.4616 25.2992 12.2535 24.3243 12.2535C23.3475 12.2535 22.5576 11.4616 22.5576 10.4848C22.5576 9.5079 23.3494 8.71606 24.3243 8.71606C25.3012 8.71606 26.093 9.5079 26.093 10.4848Z" fill="white"/>
<defs>
<radialGradient id="paint0_radial" cx="0" cy="0" r="1" gradientUnits="userSpaceOnUse" gradientTransform="translate(10.2522 37.7105) scale(46.3806)">
<stop offset="0.0969" stop-color="#FFD879"/>
<stop offset="0.1539" stop-color="#FCCB76"/>
<stop offset="0.2583" stop-color="#F5AA6C"/>
<stop offset="0.3976" stop-color="#E9755E"/>
<stop offset="0.449" stop-color="#E45F58"/>
<stop offset="0.6786" stop-color="#D22A9C"/>
<stop offset="1" stop-color="#6968DF"/>
</radialGradient>
</defs>
</svg>
