<svg width="36" height="35" viewBox="0 0 36 35" fill="none" xmlns="http://www.w3.org/2000/svg">
<path d="M35.002 27.8098C35.002 31.7809 31.7829 35 27.8138 35H7.1902C3.21908 35 0 31.7809 0 27.8098V7.18821C0 3.21709 3.21908 0 7.1902 0H27.8118C31.7809 0 35 3.21709 35 7.18821V27.8098H35.002Z" fill="#DE2925"/>
<path d="M30.6524 20.6733C30.6524 23.9879 29.5183 26.6758 26.2057 26.6758H9.15139C5.83681 26.6758 4.34863 23.9879 4.34863 20.6733V14.3247C4.34863 11.0101 5.69555 8.32227 9.01013 8.32227H26.347C29.6616 8.32227 30.6543 11.0081 30.6543 14.3247V20.6733H30.6524Z" fill="white"/>
<path d="M14.8633 13.9128L22.0296 17.6532L14.8633 21.3915V13.9128Z" fill="#DE2925"/>
<path d="M14.8633 13.9706L21.0945 18.1387L22.0296 17.6532L15.4184 14.2034L14.8633 13.9626V13.9706Z" fill="#E8E0E0"/>
</svg>
